PathFileType	4	(X/Y/Z)	C:\Users\dbl\Desktop\20210112(1)\20210112\bx_n_10_1802.trc
DataRate	CameraRate	NumFrames	NumMarkers	Units	OrigDataRate	OrigDataStartFrame	OrigNumFrames
50.00	50.00	       4	43	mm	50.00	324	       518
Frame#	Time	Top.Head			R.Acromium			L.Acromium			Sternum			R.ASIS			L.ASIS			V.Sacral			R.Thigh.Upper			R.Thigh.Front			R.Thigh.Rear			R.Knee.Lat			R.Knee.Med			R.Shank.Upper			R.Shank.Front			R.Shank.Rear			R.Ankle.Lat			R.Midfoot.Lat			R.Toe.Lat			R.Toe.Tip			R.Toe.Med			R.Ankle.Med			R.Midfoot.Sup			R.Heel			L.Thigh.Upper			L.Thigh.Front			L.Thigh.Rear			L.Knee.Lat			L.Knee.Med			L.Shank.Upper			L.Shank.Front			L.Shank.Rear			L.Ankle.Lat			L.Midfoot.Lat			L.Toe.Lat			L.Toe.Tip			L.Toe.Med			L.Ankle.Med			L.Midfoot.Sup			L.Heel			origin1 front left			origin2 front right			origin 3 back right			origin 4 back leftt			
		X1	Y1	Z1	X2	Y2	Z2	X3	Y3	Z3	X4	Y4	Z4	X5	Y5	Z5	X6	Y6	Z6	X7	Y7	Z7	X8	Y8	Z8	X9	Y9	Z9	X10	Y10	Z10	X11	Y11	Z11	X12	Y12	Z12	X13	Y13	Z13	X14	Y14	Z14	X15	Y15	Z15	X16	Y16	Z16	X17	Y17	Z17	X18	Y18	Z18	X19	Y19	Z19	X20	Y20	Z20	X21	Y21	Z21	X22	Y22	Z22	X23	Y23	Z23	X24	Y24	Z24	X25	Y25	Z25	X26	Y26	Z26	X27	Y27	Z27	X28	Y28	Z28	X29	Y29	Z29	X30	Y30	Z30	X31	Y31	Z31	X32	Y32	Z32	X33	Y33	Z33	X34	Y34	Z34	X35	Y35	Z35	X36	Y36	Z36	X37	Y37	Z37	X38	Y38	Z38	X39	Y39	Z39	X40	Y40	Z40	X41	Y41	Z41	X42	Y42	Z42	X43	Y43	Z43	

324	6.460	-292.56741	92.82320	1284.48267	-507.78851	-77.54840	1087.68774	-505.32782	254.50919	1088.04468	-604.61523	83.60271	902.53143	-845.67926	-12.23970	846.27148	-835.66840	222.84906	819.96594	-1037.70190	85.57701	850.26465	-839.01099	-97.75035	722.35767	-730.74994	-36.88051	755.32520	-746.38135	-92.43587	653.18835	-628.17975	-68.17358	572.79663	-586.89587	43.57773	561.18915	-612.96875	-65.95368	535.37152	-563.46545	-17.90944	488.80447	-671.64178	-65.34667	467.81448	-747.05914	-13.42268	206.69456	-650.98212	-68.44901	160.47005	-609.73962	-78.25268	156.07393	-546.80939	-34.13694	162.40482	-593.43933	23.65952	166.76123	-700.14160	73.61887	210.87769	-666.04584	54.79539	155.36644	-784.24707	51.23862	178.09328	-847.34180	279.45355	703.10242	-736.11914	202.80988	758.52600	-721.98792	275.82745	643.96906	-639.34412	249.13110	579.11499	-567.93463	142.47815	560.92090	-604.33350	252.61647	546.01398	-550.19727	205.66592	503.85382	-653.81097	257.75079	482.80673	-757.99890	223.28934	208.36641	-658.43799	294.38849	162.88963	-622.34711	301.80090	161.11136	-554.55725	256.44907	162.85805	-589.14655	215.82449	170.94368	-701.47363	146.14848	207.92995	-672.33661	171.69415	151.38188	-789.61890	172.32813	188.04018	-528.30389	304.11566	146.57629	-517.97723	-72.98994	143.39165	-875.85907	-78.76111	141.37956	-882.44971	296.16150	144.72708	
325	6.480	-292.66162	94.09728	1271.75854	-507.24060	-75.99640	1074.85791	-504.83899	255.70177	1075.04199	-603.85266	84.58472	890.96344	-847.68408	-11.11859	840.76959	-835.52100	223.70480	809.60840	-1038.47144	87.23688	838.09210	-838.21277	-96.94129	714.82800	-730.71448	-35.61749	750.02783	-743.92249	-91.76997	647.95837	-623.88831	-68.08934	570.44232	-582.63458	43.81329	559.63123	-608.62408	-65.88182	533.59045	-559.23486	-17.16637	487.24225	-667.86267	-65.11860	466.64905	-746.53986	-13.24037	206.92821	-650.81378	-68.20199	160.67859	-609.58698	-78.44936	156.27643	-546.67035	-34.25159	162.25558	-593.40961	23.69776	166.63895	-699.14764	73.69003	209.86853	-666.04352	54.74152	154.69910	-783.98853	51.39295	178.13593	-845.57654	280.51266	694.45508	-735.91058	203.22691	752.49506	-718.79144	276.60263	638.57141	-634.82245	250.38077	575.97882	-563.68518	142.75159	558.80750	-599.69055	253.90982	543.77399	-545.73840	206.00117	501.15829	-649.61554	258.32764	481.14645	-757.54688	223.19662	208.29144	-658.20099	294.24414	163.18393	-622.20361	301.56519	161.18489	-554.53601	256.49527	162.81937	-589.00513	215.72749	170.89571	-701.02209	145.89113	207.59996	-672.24420	171.76729	151.00435	-789.57880	172.18225	188.20685	-528.23645	304.08533	146.51839	-517.93915	-73.01726	143.40614	-875.94043	-78.75745	141.43616	-882.45142	296.17056	144.73254	
326	6.500	-293.10318	95.40759	1259.54553	-506.87436	-74.45143	1062.31592	-504.57104	256.86935	1062.19238	-603.08337	85.55421	879.60950	-849.63318	-10.03336	835.39478	-835.31042	224.68384	799.31793	-1039.14111	88.87590	825.74445	-837.38690	-95.94696	707.06299	-730.77295	-34.30897	744.58746	-741.43652	-90.99785	642.54663	-619.69165	-67.89925	568.08392	-578.57562	44.13213	557.93365	-604.32410	-65.71951	531.71149	-555.13257	-16.27762	485.60208	-664.20471	-64.79288	465.48178	-746.19617	-12.98486	207.05486	-650.68829	-68.02661	160.94028	-609.51672	-78.59557	156.43246	-546.58740	-34.37117	162.13788	-593.38232	23.73164	166.53934	-698.29205	73.85502	209.06038	-666.07599	54.72345	154.07190	-783.85327	51.50131	178.17477	-843.85156	281.61774	685.80481	-735.73425	203.78777	746.37024	-715.68353	277.46362	633.07062	-630.53687	251.88773	572.85394	-559.48193	143.10585	556.70520	-595.28125	255.16693	541.45618	-541.48090	206.25966	498.89597	-645.55139	259.03430	479.52185	-757.24731	223.13136	208.21056	-658.01062	294.12958	163.38680	-622.15381	301.36798	161.14059	-554.51605	256.59250	162.83461	-588.93024	215.68166	170.88593	-700.82501	145.61139	207.37849	-672.24799	171.78508	150.81493	-789.50195	172.05862	188.33881	-528.16901	304.10251	146.46806	-517.86639	-72.99730	143.35876	-876.01105	-78.72608	141.46266	-882.45483	296.17194	144.73192	
327	6.520	-293.79208	96.77175	1247.79248	-506.71030	-72.97864	1050.13916	-504.49640	258.00729	1049.60767	-602.30841	86.51089	868.47351	-851.52606	-8.98368	830.14777	-835.00592	225.70015	788.99554	-1039.69641	90.53590	813.24518	-836.52649	-94.75822	699.20782	-730.93970	-32.74644	739.11249	-738.93896	-90.06011	637.13104	-615.50745	-67.36351	565.76410	-574.80078	44.79572	556.11139	-600.06940	-65.17989	529.83508	-551.19055	-15.23084	483.86816	-660.61914	-64.14998	464.36588	-745.93225	-12.59981	207.11482	-650.58917	-67.95582	161.27684	-609.54919	-78.61189	156.54526	-546.53760	-34.47336	162.06583	-593.33624	23.81560	166.42482	-697.65936	74.10542	208.48851	-666.11597	54.76764	153.53305	-783.80280	51.60184	178.24283	-842.13214	282.79950	677.06287	-735.54303	204.54762	740.11993	-712.66119	278.39798	627.42633	-626.47394	253.59866	569.73865	-555.40717	143.72238	554.62561	-591.10156	256.39685	539.08844	-537.36304	206.61339	497.06830	-641.61761	259.91635	477.99103	-757.02502	223.07391	208.17746	-657.86816	294.05917	163.49442	-622.18463	301.22913	161.05528	-554.49414	256.72055	162.87431	-588.92206	215.65282	170.86214	-700.86707	145.28783	207.27469	-672.23798	171.73315	150.81020	-789.34534	171.90102	188.43414	-528.12695	304.19867	146.48990	-517.78510	-72.97347	143.30045	-876.07043	-78.65717	141.43523	-882.46356	296.16687	144.72267	
